<?xml version="1.0" standalone="no"?>
<!DOCTYPE svg PUBLIC "-//W3C//DTD SVG 20010904//EN"
 "http://www.w3.org/TR/2001/REC-SVG-20010904/DTD/svg10.dtd">
<svg version="1.0" xmlns="http://www.w3.org/2000/svg"
 width="360.000000pt" height="360.000000pt" viewBox="0 0 360.000000 360.000000"
 preserveAspectRatio="xMidYMid meet">
<metadata>
Created by potrace 1.14, written by Peter Selinger 2001-2017
</metadata>
<g transform="translate(0.000000,360.000000) scale(0.100000,-0.100000)"
fill="#000000" stroke="none">
<path d="M1820 3290 c0 -5 -10 -14 -21 -21 -16 -8 -20 -8 -14 1 9 15 -57 -19
-67 -34 -5 -6 -5 4 -2 22 9 43 -10 36 -58 -22 -28 -33 -63 -56 -145 -96 -146
-71 -161 -86 -218 -225 -21 -51 -55 -171 -61 -210 -2 -16 -9 -55 -16 -85 -6
-30 -12 -62 -13 -70 -1 -8 -7 -40 -13 -70 -6 -30 -11 -62 -11 -70 0 -8 -3 -83
-6 -166 -5 -122 -3 -164 10 -214 16 -62 20 -116 11 -155 -2 -11 -5 -20 -6 -20
-2 0 -3 -3 -34 -135 -41 -168 -42 -186 -32 -307 7 -85 22 -135 58 -196 48 -82
52 -94 63 -200 8 -81 41 -173 98 -277 23 -41 42 -77 42 -80 1 -9 47 -95 54
-100 3 -3 13 -18 21 -35 23 -46 191 -211 223 -219 41 -10 170 77 175 117 5 38
17 34 28 -10 9 -34 13 -38 88 -63 76 -26 81 -27 140 -14 119 27 247 112 286
190 8 16 33 58 55 94 64 102 85 153 119 284 26 104 29 137 30 446 1 202 -5
305 -19 380 -3 14 -7 40 -10 58 -10 82 -61 252 -113 378 -27 65 -35 101 -47
222 -3 23 -14 77 -25 120 -27 100 -29 107 -50 157 -5 11 -18 46 -29 77 -19 52
-84 185 -130 265 -48 85 -198 256 -245 281 -20 10 -76 -3 -76 -18 0 -4 -7 -11
-16 -14 -14 -5 -15 -4 -5 8 7 8 10 20 6 26 -8 13 -25 13 -25 0z"/>
</g>
</svg>
